<?xml version="1.0" encoding="utf-8"?>
<!-- Generator: Adobe Illustrator 16.0.0, SVG Export Plug-In . SVG Version: 6.00 Build 0)  -->
<!DOCTYPE svg PUBLIC "-//W3C//DTD SVG 1.1//EN" "http://www.w3.org/Graphics/SVG/1.1/DTD/svg11.dtd">
<svg version="1.1" id="Layer_1" xmlns="http://www.w3.org/2000/svg" xmlns:xlink="http://www.w3.org/1999/xlink" x="0px" y="0px"
	 width="190px" height="190px" viewBox="0 0 190 190" enable-background="new 0 0 190 190" xml:space="preserve">
<path fill="#F7DB14" d="M190,150c0,22-18,40-40,40H40c-22,0-40-18-40-40V40C0,18,18,0,40,0h110c22,0,40,18,40,40V150z"/>
<polygon fill="#CD2027" points="145.82,37.961 151.741,48.281 163.604,46.732 157.274,56.25 162.568,68.75 149.83,62.711 
	138.97,68.918 140.915,57.923 131.932,51.706 142.606,49.634 "/>
<path fill="#CD2027" d="M83.659,134.816c-1.138,0.914-4.969,2.354-4.969,2.354l-10.628-33.709l2.942-0.955
	c10.306-3.368,18.288,1.135,20.302,10.12C93.918,122.343,91.235,130.879,83.659,134.816 M63.117,87.193l-6.284-19.976
	c0,0,2.453-1.256,6.405-2.83c4.977-1.983,9.52-1.491,11.361,2.717c3.101,7.709-0.835,15.869-8.843,19.072
	C64.752,86.58,63.117,87.193,63.117,87.193 M105.919,120.482c-1.185-1.709-5.033-7.917-6.09-17.722
	c-0.456-4.252-0.496-8.127-0.128-11.625c-3.517-3.111-8.401-5.3-14.834-6.146c8.723-8.33,12.048-18.249,9.841-26.239
	C89.739,39.73,69.59,40.987,54.631,46.266c-13.192,4.869-27.436,13.627-27.436,13.627l7.665,16.626l4.605-2.118l29.839,81.489
	c0,0,3.561-1.142,8.38-2.86c14.449-5.285,27.94-12.962,30.306-29.899C107.226,122.246,106.534,121.354,105.919,120.482"/>
<path fill="#CD2027" d="M116.701,100.058c-1.464-13.607,2.798-13.87,4.2-13.956c3.833-0.237,8.345,3.355,9.505,14.145
	c0.979,9.098-0.812,15.126-4.566,15.357C121.403,115.877,117.534,107.785,116.701,100.058 M143.818,96.093l-0.009-0.053
	c-2.495-15.724-10.713-23.961-23.117-23.196c-2.877,0.177-8.31,1.193-12.371,6.008c-4.384,5.194-6.016,13.324-4.849,24.167
	c0.78,7.249,3.385,13.195,5.572,16.357c4.568,6.456,10.049,9.724,16.308,9.724c0.374,0,0.752-0.013,1.132-0.035
	c3.846-0.237,9.407-1.095,13.283-5.773C144.139,118.016,145.464,109.118,143.818,96.093"/>
</svg>
